<svg width="886" height="886" viewBox="0 0 886 886" fill="none" xmlns="http://www.w3.org/2000/svg">
<circle cx="443" cy="443" r="443" fill="#EF4444"/>
<circle cx="443" cy="443" r="358.5" stroke="white" stroke-width="47"/>
<ellipse cx="439.5" cy="313.5" rx="48.5" ry="153.5" fill="white"/>
<ellipse cx="541.873" cy="356.931" rx="48.5" ry="153.5" transform="rotate(49.8974 541.873 356.931)" fill="white"/>
<path d="M572.792 393.645C540.398 420.926 507.592 441.462 480.75 452.618C467.326 458.197 455.421 461.419 445.82 461.979C436.207 462.541 429.009 460.432 424.844 455.487C420.679 450.541 419.826 443.089 422.015 433.712C424.2 424.346 429.4 413.163 437.182 400.884C452.741 376.331 478.559 347.497 510.953 320.216C543.347 292.935 576.154 272.399 602.995 261.243C616.419 255.664 628.324 252.443 637.925 251.882C647.538 251.321 654.736 253.429 658.901 258.374C663.066 263.32 663.919 270.772 661.731 280.149C659.545 289.515 654.345 300.698 646.564 312.977C631.004 337.53 605.186 366.365 572.792 393.645Z" stroke="white" stroke-opacity="0.7"/>
<ellipse cx="364.317" cy="532.348" rx="48.5" ry="153.5" transform="rotate(45.3743 364.317 532.348)" fill="white"/>
<path d="M398.036 566.51C367.894 596.26 336.81 619.32 310.931 632.557C297.989 639.178 286.375 643.328 276.848 644.644C267.31 645.962 259.968 644.428 255.426 639.826C250.884 635.224 249.446 627.862 250.888 618.342C252.328 608.833 256.63 597.275 263.419 584.42C276.993 558.717 300.457 527.936 330.599 498.185C360.741 468.435 391.825 445.375 417.704 432.138C430.646 425.518 442.26 421.367 451.787 420.051C461.325 418.733 468.667 420.267 473.209 424.869C477.751 429.471 479.189 436.833 477.747 446.353C476.307 455.862 472.005 467.421 465.216 480.275C451.641 505.978 428.178 536.759 398.036 566.51Z" stroke="white" stroke-opacity="0.7"/>
<ellipse cx="543.393" cy="531.664" rx="48.5" ry="153.5" transform="rotate(131.243 543.393 531.664)" fill="white"/>
<path d="M511.749 567.756C479.904 539.836 454.665 510.493 439.598 485.635C432.062 473.204 427.086 461.919 425.087 452.512C423.086 443.093 424.087 435.66 428.35 430.798C432.612 425.936 439.851 423.972 449.451 424.724C459.039 425.476 470.877 428.934 484.187 434.779C510.802 446.467 543.193 467.652 575.037 495.572C606.882 523.493 632.121 552.836 647.188 577.693C654.723 590.125 659.7 601.41 661.699 610.817C663.7 620.235 662.699 627.669 658.436 632.531C654.174 637.393 646.935 639.357 637.335 638.605C627.747 637.853 615.909 634.395 602.599 628.55C575.984 616.862 543.593 595.677 511.749 567.756Z" stroke="white" stroke-opacity="0.7"/>
<ellipse cx="596.5" cy="435.5" rx="48.5" ry="153.5" transform="rotate(90 596.5 435.5)" fill="white"/>
<ellipse cx="289.5" cy="438.5" rx="48.5" ry="153.5" transform="rotate(90 289.5 438.5)" fill="white"/>
<ellipse cx="352.71" cy="360.901" rx="48.5" ry="153.5" transform="rotate(-57.7646 352.71 360.901)" fill="white"/>
<ellipse cx="443.5" cy="564.5" rx="48.5" ry="153.5" fill="white"/>
</svg>
